<?xml version="1.0" encoding="UTF-8" standalone="no"?>
<!-- Created with Inkscape (http://www.inkscape.org/) -->

<svg
   width="210mm"
   height="297mm"
   viewBox="0 0 210 297"
   version="1.1"
   id="svg5"
   xml:space="preserve"
   inkscape:export-filename="pictograma-x_764382-13928.svg"
   inkscape:export-xdpi="96"
   inkscape:export-ydpi="96"
   xmlns:inkscape="http://www.inkscape.org/namespaces/inkscape"
   xmlns:sodipodi="http://sodipodi.sourceforge.net/DTD/sodipodi-0.dtd"
   xmlns="http://www.w3.org/2000/svg"
   xmlns:svg="http://www.w3.org/2000/svg"><sodipodi:namedview
     id="namedview7"
     pagecolor="#ffffff"
     bordercolor="#000000"
     borderopacity="0.25"
     inkscape:showpageshadow="2"
     inkscape:pageopacity="0.0"
     inkscape:pagecheckerboard="0"
     inkscape:deskcolor="#d1d1d1"
     inkscape:document-units="mm"
     showgrid="false" /><defs
     id="defs2" /><g
     inkscape:label="Capa 1"
     inkscape:groupmode="layer"
     id="layer1"><path
       style="fill:#000000;stroke-width:0.260032"
       d="m 47.593868,173.82903 -0.784429,-0.33516 -0.453267,-0.49293 -0.453267,-0.49295 -0.416825,-0.95209 -0.416824,-0.95211 -0.01981,-1.05947 -0.01981,-1.05949 0.353701,-0.89837 0.353701,-0.89835 9.821422,-14.08542 9.82142,-14.08545 8.930841,-12.81715 8.930823,-12.81713 0.492441,-0.70272 0.492441,-0.70275 -2.477855,-3.30169 -2.477873,-3.30168 -5.179401,-6.812416 -5.1794,-6.81243 -5.094807,-6.68362 -5.094823,-6.68361 -7.107046,-9.33143 -7.107045,-9.331463 -0.775524,-1.179694 -0.775525,-1.179693 -0.186371,-1.106707 -0.186354,-1.106708 0.490942,-1.175304 0.490958,-1.175289 0.968376,-0.772419 0.968373,-0.772421 16.87084,-0.500426 16.870858,-0.500429 1.031408,0.128232 1.031407,0.12823 1.612706,1.566798 1.612725,1.566783 1.6958,2.445242 1.695782,2.445241 4.383781,5.91479 4.383763,5.914787 3.630989,4.75556 3.63102,4.75553 1.12647,1.60851 1.12648,1.6085 0.20614,-0.005 0.20615,-0.005 2.23556,-3.23695 2.23553,-3.23693 3.27965,-4.75621 3.27961,-4.75621 4.50982,-6.605013 4.50982,-6.605012 0.97397,-1.352634 0.97398,-1.352632 0.96613,-0.770382 0.96614,-0.770398 17.66919,-0.405514 17.66921,-0.405515 1.10671,0.774475 1.10677,0.774473 0.52475,0.829704 0.52476,0.829688 0.016,0.912447 0.0143,0.912432 -0.62327,1.415286 -0.62327,1.41527 -3.1131,4.392718 -3.11314,4.392713 -15.74268,22.459134 -15.74269,22.459126 -0.0977,0.4063 -0.0976,0.40631 5.29209,7.06339 5.2921,7.06341 14.60584,19.5422 14.60582,19.54221 0.61006,1.14095 0.61005,1.14094 0.0214,1.14184 0.0214,1.14185 -0.36575,0.74527 -0.36579,0.74526 -0.7826,0.68783 -0.7826,0.68782 -0.95921,0.28754 -0.95924,0.28754 -15.9755,0.30493 -15.9755,0.30495 -1.40127,-0.23974 -1.40126,-0.23975 -0.57631,-0.57029 -0.57632,-0.5703 -6.98029,-9.38604 -6.98026,-9.38605 -4.6439,-6.24764 -4.6439,-6.24767 -0.27895,0.0995 -0.27896,0.0995 -9.19383,13.3266 -9.193864,13.32661 -1.800988,2.76991 -1.801006,2.76993 -1.154514,0.67624 -1.154513,0.67626 -17.241423,0.38671 -17.241425,0.38659 -0.784428,-0.33514 z"
       id="path181" /></g></svg>
